# AST/ASF file generated using VICON BodyLanguage
# -----------------------------------------------
:version 1.10
:name VICON
:units
  mass 1.0
  length 0.45
  angle deg
:documentation
   .ast/.asf automatically generated from VICON data using
   VICON BodyBuilder and BodyLanguage model FoxedUp or BRILLIANT.MOD
:root
   order TX TY TZ RX RY RZ
   axis XYZ
   position 0 0 0  
   orientation 0 0 0 
:bonedata
  begin
     id 1 
     name lhipjoint
     direction 0.522423 -0.726805 0.445902 
     length 2.25074 
     axis 0 0 0  XYZ
  end
  begin
     id 2 
     name lfemur
     direction 0.34202 -0.939693 0  
     length 6.54609  
     axis 0 0 20  XYZ
    dof rx ry rz
    limits (-160.0 20.0)
           (-70.0 70.0)
           (-60.0 70.0)
  end
  begin
     id 3 
     name ltibia
     direction 0.34202 -0.939693 0   
     length 7.7528   
     axis 0 0 20   XYZ
    dof rx
    limits (-10.0 170.0)
  end
  begin
     id 4 
     name lfoot
     direction 0.143696 -0.394801 0.90746   
     length 1.73269   
     axis -90 7.62852e-016 20   XYZ
    dof rx rz
    limits (-45.0 90.0)
           (-70.0 20.0)
  end
  begin
     id 5 
     name ltoes
     direction 1.53633e-011 -4.21912e-011 1   
     length 0.858383   
     axis -90 7.62852e-016 20   XYZ
    dof rx
    limits (-90.0 20.0)
  end
  begin
     id 6 
     name rhipjoint
     direction -0.515943 -0.73016 0.447961   
     length 2.2404  
     axis 0 0 0  XYZ 
  end
  begin
     id 7 
     name rfemur
     direction -0.34202 -0.939693 0   
     length 6.84377   
     axis 0 0 -20   XYZ
    dof rx ry rz
    limits (-160.0 20.0)
           (-70.0 70.0)
           (-70.0 60.0)
  end
  begin
     id 8 
     name rtibia
     direction -0.34202 -0.939693 0   
     length 7.57596   
     axis 0 0 -20   XYZ
    dof rx
    limits (-10.0 170.0)
 end
 begin
     id 9 
     name rfoot
     direction -0.0999372 -0.274575 0.956358   
     length 1.78783  
     axis -90 -7.62852e-016 -20   XYZ
    dof rx rz
    limits (-45.0 90.0)
           (-20.0 70.0)
  end
  begin
     id 10 
     name rtoes
     direction -1.53535e-011 -4.21895e-011 1   
     length 0.898614   
     axis -90 -7.62852e-016 -20   XYZ
    dof rx
    limits (-90.0 20.0)
  end
  begin
     id 11 
     name lowerback
     direction -0.011775 0.996164 -0.0867116   
     length 1.91499   
     axis 0 0 0   XYZ
    dof rx ry rz
    limits (-20.0 45.0)
           (-30.0 30.0)
           (-30.0 30.0)
  end
  begin
     id 12 
     name upperback
     direction -0.00189771 0.999673 -0.0254833   
     length 1.92213   
     axis 0 0 0   XYZ
    dof rx ry rz
    limits (-20.0 45.0)
           (-30.0 30.0)
           (-30.0 30.0)
  end
  begin
     id 13 
     name thorax
     direction 0.00335995 0.999878 0.0152401   
     length 1.93138   
     axis 0 0 0   XYZ
    dof rx ry rz
    limits (-20.0 45.0)
           (-30.0 30.0)
           (-30.0 30.0)
  end
  begin
     id 14 
     name lowerneck
     direction 0.00233191 0.998509 0.0545404   
     length 1.59408   
     axis 0 0 0   XYZ
    dof rx ry rz
    limits (-20.0 45.0)
           (-30.0 30.0)
           (-30.0 30.0)
  end
  begin
     id 15 
     name upperneck
     direction 0.07881 0.9956 -0.0506934   
     length 1.59344   
     axis 0 0 0   XYZ
    dof rx ry rz
    limits (-20.0 45.0)
           (-30.0 30.0)
           (-30.0 30.0)
  end
  begin
     id 16
     name head
     direction 0.0261681 0.999378 -0.0236299  
     length 1.60935  
     axis 0 0 0   XYZ
    dof rx ry rz
    limits (-20.0 45.0)
           (-30.0 30.0)
           (-30.0 30.0)
  end
  begin
     id 17 
     name lclavicle
     direction 0.96643 0.252035 0.0499195  
     length 3.82153  
     axis 0 0 0   XYZ
    dof ry rz
    limits (-20.0 10.0)
           (0.0 20.0)
  end
  begin
     id 18 
     name lhumerus
     direction 1 -4.48967e-011 -2.01614e-018   
     length 4.87796   
     axis 180 -30 -90   XYZ
    dof rx ry rz
    limits (-60.0 90.0)
           (-90.0 90.0)
           (-90.0 90.0)
  end
  begin
     id 19
     name lradius
     direction 1 -4.48958e-011 3.1409e-027   
     length 3.23169   
     axis 180 -30 -90   XYZ
    dof rx
    limits (-10.0 170.0)
  end
  begin
     id 20
     name lwrist
     direction 1 -4.48924e-011 1.0365e-027   
     length 1.61584   
     axis -2.56395e-016 90 90   XYZ
    dof ry
    limits (-180.0 0.0)
 end
  begin
     id 21 
     name lhand
     direction 1 -4.49055e-011 2.09488e-027   
     length 0.731324   
     axis -1.32723e-015 90 90   XYZ
    dof rx rz
    limits (-90.0 90.0)
           (-45.0 45.0)
  end
  begin
     id 22 
     name lfingers
     direction 1 -4.48935e-011 4.14981e-027   
     length 0.589612   
     axis -2.6545e-015 90 90   XYZ
    dof rx
    limits (0.0 90.0)
  end
  begin
     id 23
     name lthumb
     direction 0.707107 -6.35097e-011 0.707107   
     length 0.846569   
     axis -90 45 5.05613e-014   XYZ
    dof rx rz
    limits (-45.0 45.0)
           (-45.0 45.0)
  end
  begin
     id 24 
     name rclavicle
     direction -0.979337 0.201016 0.0221522   
     length 3.73827  
     axis 0 0 0   XYZ 
    dof ry rz
    limits (-10.0 20.0)
           (-20.0 0.0)
  end
  begin
     id 25 
     name rhumerus
     direction -1 -4.48971e-011 1.65907e-027  
     length 4.9143   
     axis 180 30 90   XYZ
    dof rx ry rz
    limits (-90.0 60.0)
           (-90.0 90.0)
           (-90.0 90.0)
  end
  begin
     id 26 
     name rradius
     direction -1 -4.4894e-011 2.17871e-028   
     length 3.29093   
     axis 180 30 90   XYZ
    dof rx
    limits (-10.0 170.0)
  end
  begin
     id 27 
     name rwrist
     direction -1 -4.48971e-011 1.04038e-027   
     length 1.64546   
     axis -2.56395e-016 -90 -90   XYZ
    dof ry
    limits (-180.0 0.0)
  end
  begin
     id 28
     name rhand
     direction -1 -4.49017e-011 2.08843e-027   
     length 0.54512   
     axis -1.32723e-015 -90 -90   XYZ
    dof rx rz
    limits (-90.0 90.0)
           (-45.0 45.0)
  end
  begin
     id 29
     name rfingers
     direction -1 -4.48918e-011 4.1439e-027   
     length 0.43949   
     axis -2.6545e-015 -90 -90   XYZ
    dof rx
    limits (0.0 90.0)
  end
  begin
     id 30
     name rthumb
     direction -0.707107 -6.35065e-011 0.707107   
     length 0.631022   
     axis -90 -45 -5.05613e-014   XYZ
    dof rx rz
    limits (-45.0 45.0)
           (-45.0 45.0)
  end
:hierarchy
  begin
    root lhipjoint rhipjoint lowerback
    lhipjoint lfemur
    lfemur ltibia
    ltibia lfoot
    lfoot ltoes
    rhipjoint rfemur
    rfemur rtibia
    rtibia rfoot
    rfoot rtoes
    lowerback upperback
    upperback thorax
    thorax lowerneck lclavicle rclavicle
    lowerneck upperneck
    upperneck head
    lclavicle lhumerus
    lhumerus lradius
    lradius lwrist
    lwrist lhand lthumb
    lhand lfingers
    rclavicle rhumerus
    rhumerus rradius
    rradius rwrist
    rwrist rhand rthumb
    rhand rfingers
  end

#!OML:ASF H:\BreakDance\Project 1\Capture day 1\Session 1\Male.ASF
:FULLY-SPECIFIED
:DEGREES
1352
root -4.51594 16.5897 -5.55019 3.88832 -67.6036 732.061
lowerback 7.75821 -1.72007 -1.13713
upperback 6.37546 -2.49342 -1.78166
thorax 2.21706 -1.31935 -1.06182
lowerneck -2.25951 -0.579056 -1.15223
upperneck -9.46061 -0.746159 2.32547
head -2.59077 -0.4582 0.952834
rclavicle 3.63776e-014 -2.84262e-014
rhumerus -33.1195 23.2747 -105.906
rradius 96.6966
rwrist 6.55585
rhand -36.2289 -11.7355
rfingers 7.12502
rthumb -9.33063 -41.509
lclavicle 3.63776e-014 -2.84262e-014
lhumerus -22.6367 -63.6508 94.6094
lradius 80.3171
lwrist -5.40249
lhand -0.994396 -22.4355
lfingers 7.12502
lthumb 24.6376 5.99871
rfemur -42.5678 -7.38088 10.1089
rtibia 40.4917
rfoot -18.5154 4.84692
rtoes 39.2592
lfemur -50.7776 4.9923 -7.80055
ltibia 97.7103
lfoot -11.5332 -3.64754
ltoes -28.2693
1353
root -4.47315 16.5852 -5.5341 2.92278 -69.6037 733.458
lowerback 7.50412 -1.75077 -1.01089
upperback 6.31197 -2.52469 -1.7217
thorax 2.28762 -1.33196 -1.07635
lowerneck -2.0916 -0.341074 -0.973584
upperneck -9.70676 -0.461564 1.89532
head -2.70864 -0.314632 0.783089
rclavicle -1.42131e-014 -4.56211e-014
rhumerus -34.6962 23.8293 -105.972
rradius 96.1218
rwrist 6.73679
rhand -36.7748 -11.9338
rfingers 7.12502
rthumb -9.8574 -41.683
lclavicle -1.42131e-014 -4.56211e-014
lhumerus -23.4703 -63.5233 97.2355
lradius 78.8017
lwrist -6.29036
lhand -0.586437 -21.6328
lfingers 7.12502
lthumb 25.0286 6.74746
rfemur -43.7147 -6.84388 10.0446
rtibia 40.41
rfoot -18.1035 5.63577
rtoes 39.4429
lfemur -51.2873 6.1931 -8.23859
ltibia 100.382
lfoot -11.287 -5.15197
ltoes -26.3924
1354
root -4.43265 16.5749 -5.51435 2.35461 -71.5566 734.362
lowerback 7.21568 -1.81489 -0.600033
upperback 6.28717 -2.58677 -1.62849
thorax 2.40639 -1.35074 -1.21653
lowerneck -1.93436 -0.0515401 -0.693126
upperneck -9.9103 -0.115479 1.36257
head -2.80961 -0.139804 0.560133
rclavicle -4.96962e-016 1.58034e-014
rhumerus -36.0433 24.379 -105.84
rradius 95.5516
rwrist 7.03966
rhand -37.2495 -12.1867
rfingers 7.12502
rthumb -10.3153 -41.9138
lclavicle -4.96962e-016 1.58034e-014
lhumerus -23.8108 -63.3369 99.2166
lradius 77.3712
lwrist -7.25266
lhand -0.141261 -20.9727
lfingers 7.12502
lthumb 25.4551 7.34742
rfemur -44.7643 -6.28828 10.2222
rtibia 40.3283
rfoot -17.6617 6.34833
rtoes 39.4498
lfemur -51.5135 7.36908 -8.4524
ltibia 102.654
lfoot -10.9407 -7.11735
ltoes -24.8107
1355
root -4.3942 16.5604 -5.4921 1.93695 -73.4343 735.015
lowerback 6.95343 -1.92569 -0.0324282
upperback 6.29989 -2.70776 -1.53079
thorax 2.54175 -1.39345 -1.43735
lowerneck -1.65104 0.263487 -0.237444
upperneck -10.1934 0.250545 0.641269
head -2.95795 0.0445022 0.245022
rclavicle -1.96797e-014 1.96797e-014
rhumerus -37.1625 24.9515 -105.514
rradius 95.0176
rwrist 7.4164
rhand -37.7086 -12.3413
rfingers 7.12502
rthumb -10.7582 -42.0458
lclavicle -1.96797e-014 1.96797e-014
lhumerus -23.7609 -63.0833 100.619
lradius 76.0668
lwrist -8.21469
lhand 0.344703 -20.4229
lfingers 7.12502
lthumb 25.9205 7.83001
rfemur -45.6743 -5.74125 10.5004
rtibia 40.2481
rfoot -17.2282 6.90926
rtoes 39.3884
lfemur -51.4143 8.42304 -8.5961
ltibia 104.471
lfoot -10.4577 -9.36745
ltoes -23.9125
1356
root -4.35813 16.5444 -5.46748 1.326 -75.1808 735.746
lowerback 6.82421 -2.10517 0.587085
upperback 6.31241 -2.92204 -1.45615
thorax 2.59574 -1.48065 -1.70176
lowerneck -1.43121 0.639995 0.19024
upperneck -10.3067 0.702934 -0.0686124
head -3.03421 0.275513 -0.0665206
rclavicle 3.82164e-014 -2.8625e-014
rhumerus -38.1351 25.5566 -105.038
rradius 94.5533
rwrist 7.79348
rhand -38.1971 -12.2893
rfingers 7.12502
rthumb -11.2294 -41.9687
lclavicle 3.82164e-014 -2.8625e-014
lhumerus -23.4619 -62.7189 101.541
lradius 74.8647
lwrist -9.75282
lhand 0.66955 -20.1303
lfingers 7.12502
lthumb 26.2315 8.07674
rfemur -46.3891 -5.25904 10.7506
rtibia 40.1676
rfoot -16.8416 7.27259
rtoes 39.3539
lfemur -50.9439 9.22255 -8.82878
ltibia 105.777
lfoot -9.85729 -11.7152
ltoes -23.8946
1357
root -4.32457 16.529 -5.44051 0.0660377 -76.827 737.061
lowerback 6.77847 -2.34302 1.12503
upperback 6.32104 -3.21886 -1.41848
thorax 2.59507 -1.61182 -1.95125
lowerneck -1.24018 1.06984 0.593947
upperneck -10.2937 1.23001 -0.788537
head -3.05734 0.547149 -0.380399
rclavicle 1.72943e-014 4.37326e-015
rhumerus -38.9493 26.2428 -104.395
rradius 94.1715
rwrist 8.08226
rhand -38.7055 -11.9991
rfingers 7.12502
rthumb -11.7197 -41.6513
lclavicle 1.72943e-014 4.37326e-015
lhumerus -22.8468 -62.2507 101.928
lradius 73.7533
lwrist -11.9719
lhand 0.7911 -20.047
lfingers 7.12502
lthumb 26.3479 8.14267
rfemur -46.9614 -4.84997 10.8675
rtibia 40.0795
rfoot -16.4935 7.43975
rtoes 39.4136
lfemur -50.1299 9.76105 -9.32299
ltibia 106.539
lfoot -9.2072 -13.9455
ltoes -24.7272
1358
root -4.29425 16.5167 -5.40991 -2.39273 -78.3606 739.543
lowerback 6.70938 -2.64185 1.49508
upperback 6.37591 -3.60636 -1.41189
thorax 2.65447 -1.79349 -2.1374
lowerneck -1.14982 1.53967 0.95651
upperneck -10.19 1.80943 -1.54297
head -3.02488 0.848083 -0.699004
rclavicle -3.56818e-014 4.16454e-014
rhumerus -39.5122 27.1216 -103.536
rradius 93.8642
rwrist 8.10333
rhand -39.2667 -11.5047
rfingers 7.12502
rthumb -12.2608 -41.1253
lclavicle -3.56818e-014 4.16454e-014
lhumerus -21.6241 -61.6741 101.555
lradius 72.7594
lwrist -14.6628
lhand 0.745416 -20.3707
lfingers 7.12502
lthumb 26.3042 7.82552
rfemur -47.4191 -4.54253 10.7827
rtibia 39.9677
rfoot -16.1726 7.43142
rtoes 39.5828
lfemur -48.9988 10.01 -10.2113
ltibia 106.726
lfoot -8.59214 -15.8744
ltoes -26.1852
